<svg width="22" height="22" viewBox="0 0 22 22" fill="none" xmlns="http://www.w3.org/2000/svg">
<path d="M17.438 16.0188C17.6265 16.2074 17.7324 16.4631 17.7324 16.7298C17.7324 16.9964 17.6265 17.2522 17.438 17.4407C17.2494 17.6293 16.9937 17.7352 16.727 17.7352C16.4604 17.7352 16.2046 17.6293 16.0161 17.4407L10.7058 12.1288L5.39384 17.439C5.20529 17.6276 4.94956 17.7335 4.68291 17.7335C4.41625 17.7335 4.16052 17.6276 3.97197 17.439C3.78342 17.2505 3.67749 16.9948 3.67749 16.7281C3.67749 16.4615 3.78342 16.2057 3.97197 16.0172L9.28393 10.7069L3.97364 5.39493C3.78509 5.20637 3.67916 4.95064 3.67916 4.68399C3.67916 4.41734 3.78509 4.1616 3.97364 3.97305C4.1622 3.7845 4.41793 3.67857 4.68458 3.67857C4.95123 3.67857 5.20697 3.7845 5.39552 3.97305L10.7058 9.28501L16.0178 3.97221C16.2063 3.78366 16.462 3.67773 16.7287 3.67773C16.9953 3.67773 17.2511 3.78366 17.4396 3.97221C17.6282 4.16077 17.7341 4.4165 17.7341 4.68315C17.7341 4.94981 17.6282 5.20554 17.4396 5.39409L12.1277 10.7069L17.438 16.0188Z" fill="#6C6C6C"/>
</svg>
