<svg width="13" height="12" viewBox="0 0 13 12" fill="none" xmlns="http://www.w3.org/2000/svg">
<path d="M9.11322 1.12019C9.84829 1.16082 10.5375 1.49034 11.0307 2.03693C11.5238 2.58352 11.781 3.30288 11.7461 4.03824C11.7461 5.75619 10.263 6.81145 8.83976 8.07699C7.43498 9.33134 6.67834 10.0169 6.4334 10.1752C6.16665 10.0024 5.23498 9.15574 4.02704 8.07699C2.59766 6.80642 1.12073 5.74109 1.12073 4.03824C1.08582 3.30288 1.34296 2.58352 1.83613 2.03693C2.3293 1.49034 3.01851 1.16082 3.75358 1.12019C4.16078 1.10785 4.56421 1.20138 4.92444 1.39164C5.28467 1.5819 5.58937 1.86237 5.80874 2.20565C6.2785 2.86274 6.35679 3.19157 6.43508 3.19157C6.51337 3.19157 6.59054 2.86274 7.05582 2.20397C7.27396 1.85911 7.57876 1.57752 7.9398 1.38734C8.30083 1.19715 8.70544 1.10504 9.11322 1.12019ZM9.11322 0.00173004C8.6054 -0.0145286 8.10046 0.083983 7.63599 0.289929C7.17153 0.495875 6.7595 0.803949 6.4306 1.19121C6.10199 0.805076 5.69081 0.497714 5.22745 0.291831C4.76409 0.0859479 4.2604 -0.013194 3.75358 0.00173004C2.72173 0.0420794 1.74784 0.489368 1.04487 1.24579C0.341896 2.0022 -0.0329574 3.0062 0.00227703 4.03824C0.00227703 6.05705 1.42831 7.29686 2.80681 8.49529C2.96507 8.63286 3.12501 8.77155 3.28383 8.91303L3.85816 9.4264C4.48451 10.0224 5.14117 10.5857 5.82552 11.1142C6.00659 11.2314 6.21769 11.2938 6.4334 11.2938C6.64911 11.2938 6.86022 11.2314 7.04128 11.1142C7.74741 10.5696 8.42428 9.98814 9.06904 9.37216L9.58465 8.91135C9.74851 8.76595 9.9146 8.62111 10.0796 8.47851C11.3848 7.34607 12.8645 6.06265 12.8645 4.03824C12.8998 3.0062 12.5249 2.0022 11.8219 1.24579C11.119 0.489368 10.1451 0.0420794 9.11322 0.00173004Z" fill="#878B93"/>
</svg>
