<svg width="23" height="23" viewBox="0 0 23 23" fill="none" xmlns="http://www.w3.org/2000/svg">
<path d="M18.712 17.188C18.9144 17.3903 19.028 17.6647 19.028 17.9509C19.028 18.237 18.9144 18.5114 18.712 18.7137C18.5097 18.9161 18.2353 19.0297 17.9492 19.0297C17.663 19.0297 17.3886 18.9161 17.1863 18.7137L11.4881 13.0137L5.78803 18.712C5.5857 18.9143 5.31129 19.0279 5.02516 19.0279C4.73902 19.0279 4.46461 18.9143 4.26228 18.712C4.05996 18.5096 3.94629 18.2352 3.94629 17.9491C3.94629 17.6629 4.05996 17.3885 4.26228 17.1862L9.9623 11.488L4.26408 5.78795C4.06175 5.58563 3.94808 5.31121 3.94808 5.02508C3.94808 4.73894 4.06175 4.46453 4.26408 4.2622C4.4664 4.05988 4.74082 3.94621 5.02695 3.94621C5.31309 3.94621 5.5875 4.05988 5.78983 4.2622L11.4881 9.96223L17.1881 4.26131C17.3904 4.05898 17.6648 3.94531 17.951 3.94531C18.2371 3.94531 18.5115 4.05898 18.7138 4.26131C18.9162 4.46363 19.0298 4.73805 19.0298 5.02418C19.0298 5.31031 18.9162 5.58473 18.7138 5.78706L13.0138 11.488L18.712 17.188Z" fill="#1D1821"/>
</svg>
