<svg width="58" height="58" viewBox="0 0 58 58" fill="none" xmlns="http://www.w3.org/2000/svg">
<g filter="url(#filter0_d_513_806)">
<g filter="url(#filter1_d_513_806)">
<mask id="path-1-inside-1_513_806" fill="white">
<path d="M54 25C54 38.8071 42.8071 50 29 50C15.1929 50 4 38.8071 4 25C4 11.1929 15.1929 0 29 0C42.8071 0 54 11.1929 54 25Z"/>
</mask>
<path d="M54 25C54 38.8071 42.8071 50 29 50C15.1929 50 4 38.8071 4 25C4 11.1929 15.1929 0 29 0C42.8071 0 54 11.1929 54 25Z" fill="#F34E4E"/>
<path d="M52.2558 25C52.2558 37.8438 41.8438 48.2558 29 48.2558V51.7442C43.7704 51.7442 55.7442 39.7704 55.7442 25H52.2558ZM29 48.2558C16.1562 48.2558 5.74419 37.8438 5.74419 25H2.25581C2.25581 39.7704 14.2296 51.7442 29 51.7442V48.2558ZM5.74419 25C5.74419 12.1562 16.1562 1.74419 29 1.74419V-1.74419C14.2296 -1.74419 2.25581 10.2296 2.25581 25H5.74419ZM29 1.74419C41.8438 1.74419 52.2558 12.1562 52.2558 25H55.7442C55.7442 10.2296 43.7704 -1.74419 29 -1.74419V1.74419Z" fill="white" mask="url(#path-1-inside-1_513_806)"/>
</g>
<path d="M40.8534 23.274C41.0464 23.1206 41.3333 23.2641 41.3333 23.5065V33.625C41.3333 34.9362 40.2695 36 38.9583 36H18.375C17.0638 36 16 34.9362 16 33.625V23.5115C16 23.2641 16.282 23.1255 16.4799 23.2789C17.5883 24.1398 19.0578 25.2333 24.1047 28.8997C25.1487 29.6617 26.9102 31.2648 28.6667 31.2549C30.4331 31.2698 32.2292 29.632 33.2336 28.8997C38.2805 25.2333 39.7451 24.1349 40.8534 23.274ZM28.6667 29.6667C29.8146 29.6865 31.4672 28.2219 32.2984 27.6182C38.8643 22.8534 39.3641 22.4378 40.8781 21.2503C41.1651 21.0276 41.3333 20.6813 41.3333 20.3151V19.375C41.3333 18.0638 40.2695 17 38.9583 17H18.375C17.0638 17 16 18.0638 16 19.375V20.3151C16 20.6813 16.1682 21.0227 16.4552 21.2503C17.9693 22.4328 18.469 22.8534 25.0349 27.6182C25.8661 28.2219 27.5188 29.6865 28.6667 29.6667Z" fill="white"/>
</g>
<defs>
<filter id="filter0_d_513_806" x="0" y="0" width="58" height="58" filterUnits="userSpaceOnUse" color-interpolation-filters="sRGB">
<feFlood flood-opacity="0" result="BackgroundImageFix"/>
<feColorMatrix in="SourceAlpha" type="matrix" values="0 0 0 0 0 0 0 0 0 0 0 0 0 0 0 0 0 0 127 0" result="hardAlpha"/>
<feOffset dy="4"/>
<feGaussianBlur stdDeviation="2"/>
<feComposite in2="hardAlpha" operator="out"/>
<feColorMatrix type="matrix" values="0 0 0 0 0 0 0 0 0 0 0 0 0 0 0 0 0 0 0.25 0"/>
<feBlend mode="normal" in2="BackgroundImageFix" result="effect1_dropShadow_513_806"/>
<feBlend mode="normal" in="SourceGraphic" in2="effect1_dropShadow_513_806" result="shape"/>
</filter>
<filter id="filter1_d_513_806" x="1.67442" y="0" width="54.6512" height="54.6512" filterUnits="userSpaceOnUse" color-interpolation-filters="sRGB">
<feFlood flood-opacity="0" result="BackgroundImageFix"/>
<feColorMatrix in="SourceAlpha" type="matrix" values="0 0 0 0 0 0 0 0 0 0 0 0 0 0 0 0 0 0 127 0" result="hardAlpha"/>
<feOffset dy="2.32558"/>
<feGaussianBlur stdDeviation="1.16279"/>
<feComposite in2="hardAlpha" operator="out"/>
<feColorMatrix type="matrix" values="0 0 0 0 0 0 0 0 0 0 0 0 0 0 0 0 0 0 0.25 0"/>
<feBlend mode="normal" in2="BackgroundImageFix" result="effect1_dropShadow_513_806"/>
<feBlend mode="normal" in="SourceGraphic" in2="effect1_dropShadow_513_806" result="shape"/>
</filter>
</defs>
</svg>
