<svg width="24" height="24" viewBox="0 0 24 24" fill="none" xmlns="http://www.w3.org/2000/svg">
<path d="M12.25 12C12.9404 12 13.5 11.4404 13.5 10.75C13.5 10.0596 12.9404 9.5 12.25 9.5C11.5596 9.5 11 10.0596 11 10.75C11 11.4404 11.5596 12 12.25 12Z" fill="#878B93"/>
<path d="M12.25 6.5C12.9404 6.5 13.5 5.94036 13.5 5.25C13.5 4.55964 12.9404 4 12.25 4C11.5596 4 11 4.55964 11 5.25C11 5.94036 11.5596 6.5 12.25 6.5Z" fill="#878B93"/>
<path d="M12.25 17.5C12.9404 17.5 13.5 16.9404 13.5 16.25C13.5 15.5596 12.9404 15 12.25 15C11.5596 15 11 15.5596 11 16.25C11 16.9404 11.5596 17.5 12.25 17.5Z" fill="#878B93"/>
</svg>
