<svg width="17" height="17" viewBox="0 0 17 17" fill="none" xmlns="http://www.w3.org/2000/svg">
<circle cx="8.12589" cy="8.60441" r="7.96769" fill="#FF6D6D"/>
<g clip-path="url(#clip0_685_2254)">
<path d="M11.551 6.18288C11.3531 5.98497 11.1183 5.82796 10.8597 5.72085C10.6012 5.61373 10.3241 5.55859 10.0443 5.55859C9.76447 5.55859 9.48738 5.61373 9.22886 5.72085C8.97034 5.82796 8.73546 5.98497 8.53763 6.18288L8.12708 6.59344L7.71652 6.18288C7.31693 5.78329 6.77496 5.5588 6.20985 5.5588C5.64474 5.5588 5.10278 5.78329 4.70318 6.18288C4.30359 6.58248 4.0791 7.12444 4.0791 7.68955C4.0791 8.25466 4.30359 8.79663 4.70318 9.19622L5.11374 9.60678L8.12708 12.6201L11.1404 9.60678L11.551 9.19622C11.7489 8.99839 11.9059 8.76351 12.013 8.50499C12.1201 8.24647 12.1753 7.96938 12.1753 7.68955C12.1753 7.40972 12.1201 7.13263 12.013 6.87411C11.9059 6.61559 11.7489 6.38071 11.551 6.18288Z" fill="white" stroke="white" stroke-width="0.774636" stroke-linecap="round" stroke-linejoin="round"/>
</g>
<defs>
<clipPath id="clip0_685_2254">
<rect width="9.29564" height="9.29564" fill="white" transform="translate(3.47852 4.39844)"/>
</clipPath>
</defs>
</svg>
