<svg width="172" height="172" viewBox="0 0 172 172" fill="none" xmlns="http://www.w3.org/2000/svg">
<path d="M86.1912 0.942383C38.9945 0.942383 0.754883 39.182 0.754883 86.3787C0.754883 133.575 38.9945 171.815 86.1912 171.815C133.388 171.815 171.628 133.575 171.628 86.3787C171.628 39.182 133.388 0.942383 86.1912 0.942383ZM86.1912 34.0145C102.934 34.0145 116.507 47.5879 116.507 64.3306C116.507 81.0734 102.934 94.6468 86.1912 94.6468C69.4485 94.6468 55.8751 81.0734 55.8751 64.3306C55.8751 47.5879 69.4485 34.0145 86.1912 34.0145ZM86.1912 152.523C65.969 152.523 47.8482 143.359 35.7218 129.028C42.1984 116.833 54.876 108.427 69.6552 108.427C70.482 108.427 71.3088 108.565 72.1011 108.806C76.5796 110.253 81.2649 111.183 86.1912 111.183C91.1176 111.183 95.8373 110.253 100.281 108.806C101.074 108.565 101.9 108.427 102.727 108.427C117.506 108.427 130.184 116.833 136.661 129.028C124.534 143.359 106.413 152.523 86.1912 152.523Z" fill="#F34E4E"/>
</svg>
